<mxfile host="Electron" agent="Mozilla/5.0 (Windows NT 10.0; Win64; x64) AppleWebKit/537.36 (KHTML, like Gecko) draw.io/26.2.2 Chrome/134.0.6998.178 Electron/35.1.2 Safari/537.36" version="26.2.2">
  <diagram name="Страница 1" id="zQBE9ziJD11MIniHVECq">
    <mxGraphModel dx="2255" dy="849" grid="1" gridSize="10" guides="1" tooltips="1" connect="1" arrows="1" fold="1" page="1" pageScale="1" pageWidth="827" pageHeight="1169" math="0" shadow="0">
      <root>
        <mxCell id="0" />
        <mxCell id="1" parent="0" />
        <mxCell id="8MYFQbCXYUXv31-S8Bge-22" style="edgeStyle=orthogonalEdgeStyle;rounded=0;orthogonalLoop=1;jettySize=auto;html=1;entryX=0.5;entryY=1;entryDx=0;entryDy=0;" parent="1" source="8MYFQbCXYUXv31-S8Bge-1" target="8MYFQbCXYUXv31-S8Bge-9" edge="1">
          <mxGeometry relative="1" as="geometry" />
        </mxCell>
        <mxCell id="8MYFQbCXYUXv31-S8Bge-33" style="edgeStyle=orthogonalEdgeStyle;rounded=0;orthogonalLoop=1;jettySize=auto;html=1;entryX=0.434;entryY=1.012;entryDx=0;entryDy=0;entryPerimeter=0;startArrow=classic;startFill=1;" parent="1" source="8MYFQbCXYUXv31-S8Bge-1" target="8MYFQbCXYUXv31-S8Bge-3" edge="1">
          <mxGeometry relative="1" as="geometry" />
        </mxCell>
        <mxCell id="8MYFQbCXYUXv31-S8Bge-1" value="pharma-domain" style="rounded=1;whiteSpace=wrap;html=1;fillColor=#dae8fc;strokeColor=#6c8ebf;" parent="1" vertex="1">
          <mxGeometry x="395" y="540" width="230" height="110" as="geometry" />
        </mxCell>
        <mxCell id="8MYFQbCXYUXv31-S8Bge-18" style="edgeStyle=orthogonalEdgeStyle;rounded=0;orthogonalLoop=1;jettySize=auto;html=1;entryX=1;entryY=0.5;entryDx=0;entryDy=0;" parent="1" source="8MYFQbCXYUXv31-S8Bge-2" target="8MYFQbCXYUXv31-S8Bge-9" edge="1">
          <mxGeometry relative="1" as="geometry" />
        </mxCell>
        <mxCell id="8MYFQbCXYUXv31-S8Bge-23" style="edgeStyle=orthogonalEdgeStyle;rounded=0;orthogonalLoop=1;jettySize=auto;html=1;entryX=1;entryY=0.5;entryDx=0;entryDy=0;" parent="1" source="8MYFQbCXYUXv31-S8Bge-2" target="8MYFQbCXYUXv31-S8Bge-1" edge="1">
          <mxGeometry relative="1" as="geometry">
            <Array as="points">
              <mxPoint x="885" y="595" />
            </Array>
          </mxGeometry>
        </mxCell>
        <mxCell id="8MYFQbCXYUXv31-S8Bge-24" value="Заказ медикаментов" style="edgeLabel;html=1;align=center;verticalAlign=middle;resizable=0;points=[];" parent="8MYFQbCXYUXv31-S8Bge-23" vertex="1" connectable="0">
          <mxGeometry x="-0.5401" y="-3" relative="1" as="geometry">
            <mxPoint as="offset" />
          </mxGeometry>
        </mxCell>
        <mxCell id="8MYFQbCXYUXv31-S8Bge-29" style="edgeStyle=orthogonalEdgeStyle;rounded=0;orthogonalLoop=1;jettySize=auto;html=1;entryX=0.25;entryY=1;entryDx=0;entryDy=0;" parent="1" source="8MYFQbCXYUXv31-S8Bge-2" target="8MYFQbCXYUXv31-S8Bge-5" edge="1">
          <mxGeometry relative="1" as="geometry">
            <Array as="points">
              <mxPoint x="1130" y="385" />
              <mxPoint x="1130" y="710" />
              <mxPoint x="27" y="710" />
            </Array>
          </mxGeometry>
        </mxCell>
        <mxCell id="8MYFQbCXYUXv31-S8Bge-30" value="Заказ оборудования" style="edgeLabel;html=1;align=center;verticalAlign=middle;resizable=0;points=[];" parent="8MYFQbCXYUXv31-S8Bge-29" vertex="1" connectable="0">
          <mxGeometry x="0.8132" y="2" relative="1" as="geometry">
            <mxPoint x="5" y="-31" as="offset" />
          </mxGeometry>
        </mxCell>
        <mxCell id="8MYFQbCXYUXv31-S8Bge-35" style="edgeStyle=orthogonalEdgeStyle;rounded=0;orthogonalLoop=1;jettySize=auto;html=1;startArrow=classic;startFill=1;exitX=0.5;exitY=0;exitDx=0;exitDy=0;entryX=0.654;entryY=1.033;entryDx=0;entryDy=0;entryPerimeter=0;" parent="1" source="8MYFQbCXYUXv31-S8Bge-2" target="8MYFQbCXYUXv31-S8Bge-3" edge="1">
          <mxGeometry relative="1" as="geometry">
            <mxPoint x="270" y="190" as="targetPoint" />
            <Array as="points">
              <mxPoint x="885" y="290" />
              <mxPoint x="270" y="290" />
            </Array>
          </mxGeometry>
        </mxCell>
        <mxCell id="8MYFQbCXYUXv31-S8Bge-2" value="med-domain" style="rounded=1;whiteSpace=wrap;html=1;fillColor=#dae8fc;strokeColor=#6c8ebf;" parent="1" vertex="1">
          <mxGeometry x="770" y="330" width="230" height="110" as="geometry" />
        </mxCell>
        <mxCell id="8MYFQbCXYUXv31-S8Bge-14" style="edgeStyle=orthogonalEdgeStyle;rounded=0;orthogonalLoop=1;jettySize=auto;html=1;" parent="1" source="8MYFQbCXYUXv31-S8Bge-3" target="8MYFQbCXYUXv31-S8Bge-9" edge="1">
          <mxGeometry relative="1" as="geometry">
            <Array as="points">
              <mxPoint x="235" y="250" />
              <mxPoint x="510" y="250" />
            </Array>
          </mxGeometry>
        </mxCell>
        <mxCell id="8MYFQbCXYUXv31-S8Bge-3" value="fintech-domain" style="rounded=1;whiteSpace=wrap;html=1;fillColor=#dae8fc;strokeColor=#6c8ebf;" parent="1" vertex="1">
          <mxGeometry x="120" y="90" width="230" height="110" as="geometry" />
        </mxCell>
        <mxCell id="8MYFQbCXYUXv31-S8Bge-7" style="edgeStyle=orthogonalEdgeStyle;rounded=0;orthogonalLoop=1;jettySize=auto;html=1;entryX=1;entryY=0.5;entryDx=0;entryDy=0;" parent="1" source="8MYFQbCXYUXv31-S8Bge-4" target="8MYFQbCXYUXv31-S8Bge-3" edge="1">
          <mxGeometry relative="1" as="geometry" />
        </mxCell>
        <mxCell id="8MYFQbCXYUXv31-S8Bge-8" value="Анализ оказанных услуг, персональные &lt;br&gt;предложения по кредитным продуктам" style="edgeLabel;html=1;align=center;verticalAlign=middle;resizable=0;points=[];" parent="8MYFQbCXYUXv31-S8Bge-7" vertex="1" connectable="0">
          <mxGeometry x="-0.2749" y="-3" relative="1" as="geometry">
            <mxPoint x="-37" y="3" as="offset" />
          </mxGeometry>
        </mxCell>
        <mxCell id="8MYFQbCXYUXv31-S8Bge-10" style="edgeStyle=orthogonalEdgeStyle;rounded=0;orthogonalLoop=1;jettySize=auto;html=1;entryX=0.713;entryY=-0.026;entryDx=0;entryDy=0;entryPerimeter=0;exitX=1;exitY=0.5;exitDx=0;exitDy=0;" parent="1" source="8MYFQbCXYUXv31-S8Bge-4" target="8MYFQbCXYUXv31-S8Bge-2" edge="1">
          <mxGeometry relative="1" as="geometry" />
        </mxCell>
        <mxCell id="8MYFQbCXYUXv31-S8Bge-11" value="Анализ клиентов, рекомендации по лечению" style="edgeLabel;html=1;align=center;verticalAlign=middle;resizable=0;points=[];" parent="8MYFQbCXYUXv31-S8Bge-10" vertex="1" connectable="0">
          <mxGeometry x="0.3445" y="4" relative="1" as="geometry">
            <mxPoint as="offset" />
          </mxGeometry>
        </mxCell>
        <mxCell id="8MYFQbCXYUXv31-S8Bge-12" style="edgeStyle=orthogonalEdgeStyle;rounded=0;orthogonalLoop=1;jettySize=auto;html=1;entryX=0.75;entryY=0;entryDx=0;entryDy=0;" parent="1" source="8MYFQbCXYUXv31-S8Bge-4" target="8MYFQbCXYUXv31-S8Bge-9" edge="1">
          <mxGeometry relative="1" as="geometry">
            <Array as="points">
              <mxPoint x="775" y="250" />
              <mxPoint x="565" y="250" />
            </Array>
          </mxGeometry>
        </mxCell>
        <mxCell id="8MYFQbCXYUXv31-S8Bge-13" value="Очищенные данные" style="edgeLabel;html=1;align=center;verticalAlign=middle;resizable=0;points=[];" parent="8MYFQbCXYUXv31-S8Bge-12" vertex="1" connectable="0">
          <mxGeometry x="-0.0076" y="1" relative="1" as="geometry">
            <mxPoint as="offset" />
          </mxGeometry>
        </mxCell>
        <mxCell id="8MYFQbCXYUXv31-S8Bge-25" style="edgeStyle=orthogonalEdgeStyle;rounded=0;orthogonalLoop=1;jettySize=auto;html=1;entryX=0.5;entryY=1;entryDx=0;entryDy=0;" parent="1" source="8MYFQbCXYUXv31-S8Bge-4" target="8MYFQbCXYUXv31-S8Bge-1" edge="1">
          <mxGeometry relative="1" as="geometry">
            <Array as="points">
              <mxPoint x="775" y="40" />
              <mxPoint x="1090" y="40" />
              <mxPoint x="1090" y="670" />
              <mxPoint x="510" y="670" />
            </Array>
          </mxGeometry>
        </mxCell>
        <mxCell id="8MYFQbCXYUXv31-S8Bge-26" value="Анализ продаж, рекомендации по закупкам" style="edgeLabel;html=1;align=center;verticalAlign=middle;resizable=0;points=[];" parent="8MYFQbCXYUXv31-S8Bge-25" vertex="1" connectable="0">
          <mxGeometry x="0.647" y="2" relative="1" as="geometry">
            <mxPoint x="1" as="offset" />
          </mxGeometry>
        </mxCell>
        <mxCell id="8MYFQbCXYUXv31-S8Bge-27" style="edgeStyle=orthogonalEdgeStyle;rounded=0;orthogonalLoop=1;jettySize=auto;html=1;exitX=0.25;exitY=0;exitDx=0;exitDy=0;entryX=0.25;entryY=0;entryDx=0;entryDy=0;" parent="1" source="8MYFQbCXYUXv31-S8Bge-4" target="8MYFQbCXYUXv31-S8Bge-5" edge="1">
          <mxGeometry relative="1" as="geometry">
            <Array as="points">
              <mxPoint x="717" y="40" />
              <mxPoint x="27" y="40" />
            </Array>
          </mxGeometry>
        </mxCell>
        <mxCell id="8MYFQbCXYUXv31-S8Bge-28" value="Анализ продаж, рекомендации&lt;br&gt;&amp;nbsp;по производству" style="edgeLabel;html=1;align=center;verticalAlign=middle;resizable=0;points=[];" parent="8MYFQbCXYUXv31-S8Bge-27" vertex="1" connectable="0">
          <mxGeometry x="0.8072" y="1" relative="1" as="geometry">
            <mxPoint x="292" y="-191" as="offset" />
          </mxGeometry>
        </mxCell>
        <mxCell id="8MYFQbCXYUXv31-S8Bge-4" value="ai-domain" style="rounded=1;whiteSpace=wrap;html=1;fillColor=#dae8fc;strokeColor=#6c8ebf;" parent="1" vertex="1">
          <mxGeometry x="660" y="90" width="230" height="110" as="geometry" />
        </mxCell>
        <mxCell id="8MYFQbCXYUXv31-S8Bge-16" style="edgeStyle=orthogonalEdgeStyle;rounded=0;orthogonalLoop=1;jettySize=auto;html=1;entryX=0;entryY=0.5;entryDx=0;entryDy=0;" parent="1" source="8MYFQbCXYUXv31-S8Bge-5" target="8MYFQbCXYUXv31-S8Bge-9" edge="1">
          <mxGeometry relative="1" as="geometry" />
        </mxCell>
        <mxCell id="8MYFQbCXYUXv31-S8Bge-31" style="edgeStyle=orthogonalEdgeStyle;rounded=0;orthogonalLoop=1;jettySize=auto;html=1;exitX=0.5;exitY=0;exitDx=0;exitDy=0;entryX=0;entryY=0.5;entryDx=0;entryDy=0;startArrow=classic;startFill=1;" parent="1" source="8MYFQbCXYUXv31-S8Bge-5" target="8MYFQbCXYUXv31-S8Bge-3" edge="1">
          <mxGeometry relative="1" as="geometry" />
        </mxCell>
        <mxCell id="8MYFQbCXYUXv31-S8Bge-32" value="Выставление счетов,&lt;br&gt;&amp;nbsp;оплата услуг" style="edgeLabel;html=1;align=center;verticalAlign=middle;resizable=0;points=[];" parent="8MYFQbCXYUXv31-S8Bge-31" vertex="1" connectable="0">
          <mxGeometry x="-0.5571" relative="1" as="geometry">
            <mxPoint x="5" y="-12" as="offset" />
          </mxGeometry>
        </mxCell>
        <mxCell id="8MYFQbCXYUXv31-S8Bge-5" value="production-domain" style="rounded=1;whiteSpace=wrap;html=1;fillColor=#dae8fc;strokeColor=#6c8ebf;" parent="1" vertex="1">
          <mxGeometry x="-30" y="330" width="230" height="110" as="geometry" />
        </mxCell>
        <mxCell id="8MYFQbCXYUXv31-S8Bge-9" value="DWH" style="rounded=1;whiteSpace=wrap;html=1;fillColor=#dae8fc;strokeColor=#6c8ebf;" parent="1" vertex="1">
          <mxGeometry x="400" y="330" width="220" height="110" as="geometry" />
        </mxCell>
        <mxCell id="8MYFQbCXYUXv31-S8Bge-15" value="Очищенные данные" style="edgeLabel;html=1;align=center;verticalAlign=middle;resizable=0;points=[];" parent="1" vertex="1" connectable="0">
          <mxGeometry x="360.00470588235316" y="250" as="geometry" />
        </mxCell>
        <mxCell id="8MYFQbCXYUXv31-S8Bge-17" value="Очищенные данные" style="edgeLabel;html=1;align=center;verticalAlign=middle;resizable=0;points=[];" parent="1" vertex="1" connectable="0">
          <mxGeometry x="299.00470588235316" y="385" as="geometry" />
        </mxCell>
        <mxCell id="8MYFQbCXYUXv31-S8Bge-19" value="Очищенные данные" style="edgeLabel;html=1;align=center;verticalAlign=middle;resizable=0;points=[];" parent="1" vertex="1" connectable="0">
          <mxGeometry x="700.0047058823532" y="385" as="geometry" />
        </mxCell>
        <mxCell id="8MYFQbCXYUXv31-S8Bge-21" value="Очищенные данные" style="edgeLabel;html=1;align=center;verticalAlign=middle;resizable=0;points=[];" parent="1" vertex="1" connectable="0">
          <mxGeometry x="390.00470588235316" y="280" as="geometry">
            <mxPoint x="120" y="209" as="offset" />
          </mxGeometry>
        </mxCell>
        <mxCell id="8MYFQbCXYUXv31-S8Bge-34" value="Выставление счетов,&lt;br&gt;&amp;nbsp;оплата услуг" style="edgeLabel;html=1;align=center;verticalAlign=middle;resizable=0;points=[];" parent="1" vertex="1" connectable="0">
          <mxGeometry x="110" y="280.0047058823527" as="geometry">
            <mxPoint x="111" y="228" as="offset" />
          </mxGeometry>
        </mxCell>
        <mxCell id="8MYFQbCXYUXv31-S8Bge-36" value="Выставление счетов,&lt;br&gt;&amp;nbsp;оплата услуг" style="edgeLabel;html=1;align=center;verticalAlign=middle;resizable=0;points=[];" parent="1" vertex="1" connectable="0">
          <mxGeometry x="690" y="289.7647058823527" as="geometry" />
        </mxCell>
        <mxCell id="8MYFQbCXYUXv31-S8Bge-37" value="" style="rounded=0;whiteSpace=wrap;html=1;fillColor=#fff2cc;strokeColor=#d6b656;" parent="1" vertex="1">
          <mxGeometry x="1200" y="40" width="970" height="680" as="geometry" />
        </mxCell>
        <mxCell id="8MYFQbCXYUXv31-S8Bge-38" value="&lt;h4 style=&quot;font-weight: 500; font-size: 16.002px; line-height: 28.575px; margin: 18.288px 0px 13.716px; color: rgb(64, 64, 64); font-family: DeepSeek-CJK-patch, Inter, system-ui, -apple-system, BlinkMacSystemFont, &amp;quot;Segoe UI&amp;quot;, Roboto, &amp;quot;Noto Sans&amp;quot;, Ubuntu, Cantarell, &amp;quot;Helvetica Neue&amp;quot;, Oxygen, &amp;quot;Open Sans&amp;quot;, sans-serif; text-align: start;&quot;&gt;&lt;strong style=&quot;&quot;&gt;Преимущества предложенной архитектуры&lt;/strong&gt;&lt;/h4&gt;&lt;ol style=&quot;margin: 13.716px 0px; padding-left: 27.432px; color: rgb(64, 64, 64); font-family: DeepSeek-CJK-patch, Inter, system-ui, -apple-system, BlinkMacSystemFont, &amp;quot;Segoe UI&amp;quot;, Roboto, &amp;quot;Noto Sans&amp;quot;, Ubuntu, Cantarell, &amp;quot;Helvetica Neue&amp;quot;, Oxygen, &amp;quot;Open Sans&amp;quot;, sans-serif; font-size: 16.002px; text-align: start;&quot; start=&quot;1&quot;&gt;&lt;li style=&quot;&quot;&gt;&lt;p style=&quot;margin: 0px 0px 4px; font-size: 16.002px; line-height: 28.575px;&quot; class=&quot;ds-markdown-paragraph&quot;&gt;&lt;strong&gt;Независимость доменов&lt;/strong&gt;&lt;/p&gt;&lt;ul style=&quot;margin: 4px 0px 0px; padding-left: 27.432px;&quot;&gt;&lt;li&gt;&lt;p style=&quot;margin-top: 0px; margin-right: 0px; margin-bottom: 0px !important; margin-left: 0px; font-size: 16.002px; line-height: 28.575px;&quot; class=&quot;ds-markdown-paragraph&quot;&gt;Каждый бизнес (медицина, финтех, фарм, производство) развивает свою систему без переделки общего DWH.&lt;/p&gt;&lt;/li&gt;&lt;li style=&quot;margin-top: 4px;&quot;&gt;&lt;p style=&quot;margin-top: 0px; margin-right: 0px; margin-bottom: 0px !important; margin-left: 0px; font-size: 16.002px; line-height: 28.575px;&quot; class=&quot;ds-markdown-paragraph&quot;&gt;Возможность использовать специализированные БД (медицинские FHIR, финансовые ACID-системы).&lt;/p&gt;&lt;/li&gt;&lt;/ul&gt;&lt;/li&gt;&lt;li style=&quot;margin-top: 4px;&quot;&gt;&lt;p style=&quot;margin: 0px 0px 4px; font-size: 16.002px; line-height: 28.575px;&quot; class=&quot;ds-markdown-paragraph&quot;&gt;&lt;strong&gt;Масштабируемость аналитики&lt;/strong&gt;&lt;/p&gt;&lt;ul style=&quot;margin: 4px 0px 0px; padding-left: 27.432px;&quot;&gt;&lt;li&gt;&lt;p style=&quot;margin: 0px 0px 4px; font-size: 16.002px; line-height: 28.575px;&quot; class=&quot;ds-markdown-paragraph&quot;&gt;Современный DWH&amp;nbsp; заменит устаревший SQL Server 2008, обеспечив:&lt;/p&gt;&lt;ul style=&quot;margin: 4px 0px 0px; padding-left: 27.432px;&quot;&gt;&lt;li&gt;&lt;p style=&quot;margin-top: 0px; margin-right: 0px; margin-bottom: 0px !important; margin-left: 0px; font-size: 16.002px; line-height: 28.575px;&quot; class=&quot;ds-markdown-paragraph&quot;&gt;Горизонтальное масштабирование.&lt;/p&gt;&lt;/li&gt;&lt;li style=&quot;margin-top: 4px;&quot;&gt;&lt;p style=&quot;margin-top: 0px; margin-right: 0px; margin-bottom: 0px !important; margin-left: 0px; font-size: 16.002px; line-height: 28.575px;&quot; class=&quot;ds-markdown-paragraph&quot;&gt;Быстрые ELT-процессы.&lt;/p&gt;&lt;/li&gt;&lt;/ul&gt;&lt;/li&gt;&lt;/ul&gt;&lt;/li&gt;&lt;li style=&quot;margin-top: 4px;&quot;&gt;&lt;p style=&quot;margin: 0px 0px 4px; font-size: 16.002px; line-height: 28.575px;&quot; class=&quot;ds-markdown-paragraph&quot;&gt;&lt;strong&gt;Ускорение отчётности&lt;/strong&gt;&lt;/p&gt;&lt;ul style=&quot;margin: 4px 0px 0px; padding-left: 27.432px;&quot;&gt;&lt;li&gt;&lt;p style=&quot;margin-top: 0px; margin-right: 0px; margin-bottom: 0px !important; margin-left: 0px; font-size: 16.002px; line-height: 28.575px;&quot; class=&quot;ds-markdown-paragraph&quot;&gt;Витрины данных для каждого направления (финансы, фарм производство, медицина&amp;nbsp;&lt;em&gt;без PII&lt;/em&gt;).&lt;/p&gt;&lt;/li&gt;&lt;li style=&quot;margin-top: 4px;&quot;&gt;&lt;p style=&quot;margin-top: 0px; margin-right: 0px; margin-bottom: 0px !important; margin-left: 0px; font-size: 16.002px; line-height: 28.575px;&quot; class=&quot;ds-markdown-paragraph&quot;&gt;Кеширование агрегатов и предрасчёты (материализованные представления).&lt;/p&gt;&lt;/li&gt;&lt;/ul&gt;&lt;/li&gt;&lt;li style=&quot;margin-top: 4px;&quot;&gt;&lt;p style=&quot;margin: 0px 0px 4px; font-size: 16.002px; line-height: 28.575px;&quot; class=&quot;ds-markdown-paragraph&quot;&gt;&lt;strong&gt;Гибкость интеграции&lt;/strong&gt;&lt;/p&gt;&lt;ul style=&quot;margin: 4px 0px 0px; padding-left: 27.432px;&quot;&gt;&lt;li&gt;&lt;p style=&quot;margin: 0px 0px 4px; font-size: 16.002px; line-height: 28.575px;&quot; class=&quot;ds-markdown-paragraph&quot;&gt;Event-Driven (Kafka) вместо устаревшей шины Camel:&lt;/p&gt;&lt;ul style=&quot;margin: 4px 0px 0px; padding-left: 27.432px;&quot;&gt;&lt;li&gt;&lt;p style=&quot;margin-top: 0px; margin-right: 0px; margin-bottom: 0px !important; margin-left: 0px; font-size: 16.002px; line-height: 28.575px;&quot; class=&quot;ds-markdown-paragraph&quot;&gt;Реальное время данных.&lt;/p&gt;&lt;/li&gt;&lt;li style=&quot;margin-top: 4px;&quot;&gt;&lt;p style=&quot;margin-top: 0px; margin-right: 0px; margin-bottom: 0px !important; margin-left: 0px; font-size: 16.002px; line-height: 28.575px;&quot; class=&quot;ds-markdown-paragraph&quot;&gt;Лёгкое подключение новых сервисов.&lt;/p&gt;&lt;/li&gt;&lt;/ul&gt;&lt;/li&gt;&lt;/ul&gt;&lt;/li&gt;&lt;li style=&quot;margin-top: 4px;&quot;&gt;&lt;p style=&quot;margin: 0px 0px 4px; font-size: 16.002px; line-height: 28.575px;&quot; class=&quot;ds-markdown-paragraph&quot;&gt;&lt;strong&gt;Безопасность и compliance&lt;/strong&gt;&lt;/p&gt;&lt;ul style=&quot;margin: 4px 0px 0px; padding-left: 27.432px;&quot;&gt;&lt;li style=&quot;&quot;&gt;&lt;p style=&quot;margin-top: 0px; margin-right: 0px; margin-bottom: 0px !important; margin-left: 0px; font-size: 16.002px; line-height: 28.575px;&quot; class=&quot;ds-markdown-paragraph&quot;&gt;Изоляция медицинских данных.&lt;/p&gt;&lt;/li&gt;&lt;li style=&quot;margin-top: 4px;&quot;&gt;&lt;p style=&quot;margin-top: 0px; margin-right: 0px; margin-left: 0px; font-size: 16.002px; line-height: 28.575px; margin-bottom: 0px !important;&quot; class=&quot;ds-markdown-paragraph&quot;&gt;Ролевой доступ в BI (например, врачи не видят финансовые отчёты).&lt;/p&gt;&lt;/li&gt;&lt;/ul&gt;&lt;/li&gt;&lt;/ol&gt;" style="text;html=1;strokeColor=none;fillColor=none;align=center;verticalAlign=middle;whiteSpace=wrap;rounded=0;" parent="1" vertex="1">
          <mxGeometry x="1200" y="40" width="970" height="680" as="geometry" />
        </mxCell>
      </root>
    </mxGraphModel>
  </diagram>
</mxfile>
